<svg width="60" height="60" viewBox="0 0 60 60" xmlns="http://www.w3.org/2000/svg">
  <defs>
    <pattern id="mudcloth" x="0" y="0" width="60" height="60" patternUnits="userSpaceOnUse">
      <!-- Traditional mudcloth geometric pattern -->
      <rect width="60" height="60" fill="transparent"/>
      
      <!-- Horizontal lines -->
      <line x1="0" y1="15" x2="60" y2="15" stroke="rgba(0,0,0,0.08)" stroke-width="1"/>
      <line x1="0" y1="45" x2="60" y2="45" stroke="rgba(0,0,0,0.08)" stroke-width="1"/>
      
      <!-- Vertical lines -->
      <line x1="15" y1="0" x2="15" y2="60" stroke="rgba(0,0,0,0.08)" stroke-width="1"/>
      <line x1="45" y1="0" x2="45" y2="60" stroke="rgba(0,0,0,0.08)" stroke-width="1"/>
      
      <!-- Diamond shapes -->
      <path d="M30 5 L35 15 L30 25 L25 15 Z" fill="none" stroke="rgba(0,0,0,0.06)" stroke-width="1"/>
      <path d="M30 35 L35 45 L30 55 L25 45 Z" fill="none" stroke="rgba(0,0,0,0.06)" stroke-width="1"/>
      <path d="M5 30 L15 35 L25 30 L15 25 Z" fill="none" stroke="rgba(0,0,0,0.06)" stroke-width="1"/>
      <path d="M35 30 L45 35 L55 30 L45 25 Z" fill="none" stroke="rgba(0,0,0,0.06)" stroke-width="1"/>
      
      <!-- Small dots -->
      <circle cx="15" cy="15" r="1" fill="rgba(0,0,0,0.05)"/>
      <circle cx="45" cy="15" r="1" fill="rgba(0,0,0,0.05)"/>
      <circle cx="15" cy="45" r="1" fill="rgba(0,0,0,0.05)"/>
      <circle cx="45" cy="45" r="1" fill="rgba(0,0,0,0.05)"/>
    </pattern>
  </defs>
  <rect width="100%" height="100%" fill="url(#mudcloth)"/>
</svg>

